<?xml version="1.0" encoding="utf-8"?>
<!-- Generator: Adobe Illustrator 24.0.0, SVG Export Plug-In . SVG Version: 6.00 Build 0)  -->
<svg version="1.1" id="Layer_1" xmlns="http://www.w3.org/2000/svg" xmlns:xlink="http://www.w3.org/1999/xlink" x="0px" y="0px"
	 viewBox="0 0 174 26" style="enable-background:new 0 0 174 26;" xml:space="preserve">
<style type="text/css">
	.st0{fill:#615DFF;}
	.st1{fill:#3DD9EB;}
	.st2{display:none;}
	.st3{font-family:'Montserrat-Bold';}
	.st4{font-size:23.9204px;}
	.st5{display:none;fill:#11142D;}
	.st6{display:inline;}
</style>
<path class="st0" d="M20.1,26c2.8,0,5-2.3,4.5-5c-0.3-1.7-0.8-3.4-1.4-5c-1.3-3.2-3.1-6-5.4-8.4C15.4,5.2,12.7,3.3,9.6,2
	C8.1,1.3,6.6,0.8,5,0.5C2.3-0.1,0,2.2,0,5v16c0,2.8,2.2,5,5,5H20.1z"/>
<g>
	<path class="st1" d="M13.7,26c-2.8,0-5-2.3-4.5-5c0.3-1.7,0.8-3.4,1.4-5c1.3-3.2,3.1-6,5.4-8.4c2.3-2.4,5.1-4.3,8.2-5.6
		c1.5-0.6,3.1-1.1,4.7-1.5c2.7-0.6,5,1.7,5,4.5v16c0,2.8-2.2,5-5,5H13.7z"/>
</g>
<text transform="matrix(1 0 0 1 46.0268 22.5336)" class="st2 st3 st4">FITA TEST</text>
<path class="st5" d="M46,23V5.1h3.1l6.7,9.1h-1.5l6.6-9.1H64V23h-3.3V8.8L62,9.2l-6.8,9h-0.4l-6.6-9l1.1-0.3V23H46z M73.6,23.3
	c-1.3,0-2.4-0.3-3.5-0.9c-1-0.6-1.9-1.4-2.5-2.4c-0.6-1-0.9-2.2-0.9-3.5S67,14,67.6,13c0.6-1,1.5-1.8,2.5-2.4s2.2-0.9,3.5-0.9
	c1.3,0,2.4,0.3,3.5,0.9s1.9,1.4,2.5,2.4c0.6,1,0.9,2.2,0.9,3.5c0,1.3-0.3,2.5-0.9,3.5s-1.5,1.8-2.5,2.4C76,23,74.8,23.3,73.6,23.3z
	 M73.6,20.4c0.7,0,1.3-0.2,1.8-0.5c0.5-0.3,1-0.8,1.3-1.4c0.3-0.6,0.5-1.3,0.5-2c0-0.8-0.2-1.4-0.5-2c-0.3-0.6-0.7-1.1-1.3-1.4
	c-0.5-0.4-1.1-0.5-1.8-0.5c-0.7,0-1.4,0.2-1.9,0.5c-0.5,0.3-1,0.8-1.3,1.4c-0.3,0.6-0.5,1.2-0.5,2c0,0.8,0.2,1.4,0.5,2
	c0.3,0.6,0.8,1.1,1.3,1.4C72.2,20.2,72.8,20.4,73.6,20.4z M88.9,23.3c-1.3,0-2.4-0.3-3.4-0.9c-1-0.6-1.8-1.4-2.4-2.5
	c-0.6-1-0.9-2.2-0.9-3.5c0-1.3,0.3-2.4,0.9-3.5c0.6-1,1.4-1.8,2.4-2.4c1-0.6,2.1-0.9,3.4-0.9c1,0,1.9,0.2,2.6,0.6
	c0.8,0.4,1.4,0.9,1.8,1.6l-0.5,0.6V4.8H96V23h-3v-2.5l0.3,0.6c-0.4,0.7-1.1,1.2-1.9,1.6C90.7,23.1,89.9,23.3,88.9,23.3z M89.2,20.4
	c0.7,0,1.4-0.2,1.9-0.5c0.5-0.3,1-0.8,1.3-1.4c0.3-0.6,0.5-1.3,0.5-2c0-0.8-0.2-1.4-0.5-2c-0.3-0.6-0.7-1.1-1.3-1.4
	c-0.5-0.3-1.2-0.5-1.9-0.5c-0.7,0-1.3,0.2-1.9,0.5c-0.6,0.3-1,0.8-1.3,1.4c-0.3,0.6-0.5,1.2-0.5,2c0,0.8,0.2,1.4,0.5,2
	c0.3,0.6,0.8,1.1,1.3,1.4C87.9,20.2,88.5,20.4,89.2,20.4z M105.2,23.3c-1.3,0-2.5-0.3-3.5-0.9c-1-0.6-1.8-1.4-2.4-2.5
	c-0.6-1-0.8-2.2-0.8-3.5c0-1.3,0.3-2.5,0.8-3.5c0.6-1,1.4-1.8,2.3-2.4c1-0.6,2.1-0.9,3.3-0.9c1,0,1.9,0.2,2.7,0.5
	c0.8,0.3,1.4,0.8,2,1.4s1,1.3,1.2,2c0.3,0.8,0.4,1.6,0.4,2.4c0,0.2,0,0.5,0,0.7c0,0.2-0.1,0.4-0.1,0.6H101V15h8.3l-1.5,1.1
	c0.1-0.7,0.1-1.4-0.1-2c-0.2-0.6-0.6-1-1.1-1.4c-0.5-0.3-1.1-0.5-1.8-0.5c-0.7,0-1.2,0.2-1.8,0.5c-0.5,0.3-0.9,0.8-1.2,1.4
	c-0.3,0.6-0.4,1.4-0.3,2.3c-0.1,0.8,0,1.5,0.3,2.1c0.3,0.6,0.7,1.1,1.2,1.4c0.6,0.3,1.2,0.5,1.9,0.5s1.3-0.2,1.8-0.5
	c0.5-0.3,0.9-0.7,1.2-1.2l2.5,1.2c-0.3,0.6-0.7,1.2-1.2,1.7c-0.5,0.5-1.2,0.9-1.9,1.1C106.9,23.2,106.1,23.3,105.2,23.3z M113.7,23
	V9.9h3v2.9l-0.2-0.4c0.3-1,0.8-1.7,1.4-2c0.7-0.4,1.4-0.6,2.4-0.6h0.8v2.8h-1.1c-0.9,0-1.6,0.3-2.2,0.8c-0.5,0.5-0.8,1.3-0.8,2.3V23
	H113.7z M122.6,23V9.9h3v2.6l-0.2-0.5c0.3-0.8,0.8-1.4,1.5-1.8c0.7-0.4,1.5-0.6,2.4-0.6c1,0,1.8,0.2,2.5,0.6c0.8,0.4,1.3,1,1.8,1.8
	c0.4,0.7,0.6,1.6,0.6,2.6V23h-3.1v-7.7c0-0.6-0.1-1.1-0.3-1.5s-0.5-0.7-0.9-1c-0.4-0.2-0.8-0.4-1.4-0.4c-0.5,0-1,0.1-1.4,0.4
	c-0.4,0.2-0.7,0.5-0.9,1c-0.2,0.4-0.3,0.9-0.3,1.5V23H122.6z M136.9,23V9.9h3.1V23H136.9z M136.9,8.5V5.1h3.1v3.4H136.9z M141.8,23
	v-2.5l7.6-8.8l0.5,1.1h-7.7V9.9h10.5v2.6l-7.4,8.8l-0.5-1.1h8V23H141.8z M160.7,23.3c-1.3,0-2.5-0.3-3.5-0.9c-1-0.6-1.8-1.4-2.4-2.5
	c-0.6-1-0.8-2.2-0.8-3.5c0-1.3,0.3-2.5,0.8-3.5c0.6-1,1.4-1.8,2.3-2.4c1-0.6,2.1-0.9,3.3-0.9c1,0,1.9,0.2,2.7,0.5
	c0.8,0.3,1.4,0.8,2,1.4c0.5,0.6,1,1.3,1.2,2c0.3,0.8,0.4,1.6,0.4,2.4c0,0.2,0,0.5,0,0.7c0,0.2-0.1,0.4-0.1,0.6h-10.1V15h8.3
	l-1.5,1.1c0.1-0.7,0.1-1.4-0.1-2c-0.2-0.6-0.6-1-1.1-1.4c-0.5-0.3-1.1-0.5-1.8-0.5c-0.7,0-1.2,0.2-1.8,0.5c-0.5,0.3-0.9,0.8-1.2,1.4
	c-0.3,0.6-0.4,1.4-0.3,2.3c-0.1,0.8,0,1.5,0.3,2.1c0.3,0.6,0.7,1.1,1.2,1.4c0.6,0.3,1.2,0.5,1.9,0.5c0.7,0,1.3-0.2,1.8-0.5
	c0.5-0.3,0.9-0.7,1.2-1.2l2.5,1.2c-0.3,0.6-0.7,1.2-1.2,1.7c-0.5,0.5-1.2,0.9-1.9,1.1C162.4,23.2,161.6,23.3,160.7,23.3z"/>
<g>
	<path d="M49.9,10.3v2.6c0,0.5,0.4,0.9,0.9,0.9h6c0.5,0,0.9,0.4,0.9,0.9V16c0,0.5-0.4,0.9-0.9,0.9h-6c-0.5,0-0.9,0.4-0.9,0.9v4.3
		c0,0.5-0.4,0.9-0.9,0.9h-2.1c-0.5,0-0.9-0.4-0.9-0.9V7.2c0-0.5,0.4-0.9,0.9-0.9h10.9c0.5,0,0.9,0.4,0.9,0.9v1.3
		c0,0.5-0.4,0.9-0.9,0.9h-7C50.3,9.4,49.9,9.8,49.9,10.3z"/>
	<path d="M62.2,6.3h2.1c0.5,0,0.9,0.4,0.9,0.9v14.9c0,0.5-0.4,0.9-0.9,0.9h-2.1c-0.5,0-0.9-0.4-0.9-0.9V7.2
		C61.3,6.7,61.7,6.3,62.2,6.3z"/>
	<path d="M71.7,9.4h-3.6c-0.5,0-0.9-0.4-0.9-0.9V7.2c0-0.5,0.4-0.9,0.9-0.9H81c0.5,0,0.9,0.4,0.9,0.9v1.4c0,0.5-0.4,0.9-0.9,0.9
		h-3.6c-0.5,0-0.9,0.4-0.9,0.9v11.8c0,0.5-0.4,0.9-0.9,0.9h-2.1c-0.5,0-0.9-0.4-0.9-0.9V10.3C72.6,9.8,72.2,9.4,71.7,9.4z"/>
	<path d="M93.5,19.4H87c-0.4,0-0.7,0.2-0.8,0.6l-1,2.5C85,22.8,84.6,23,84.3,23h-2c-0.7,0-1.1-0.7-0.8-1.3l6.7-14.9
		c0.1-0.3,0.5-0.5,0.8-0.5h2.7c0.4,0,0.7,0.2,0.8,0.5l6.7,14.9c0.3,0.6-0.2,1.3-0.8,1.3h-2.1c-0.4,0-0.7-0.2-0.8-0.6l-1-2.5
		C94.2,19.6,93.9,19.4,93.5,19.4z M92.9,16.5l-2.7-6.4l-2.7,6.4H92.9z"/>
	<path d="M110.8,9.4h-3.6c-0.5,0-0.9-0.4-0.9-0.9V7.2c0-0.5,0.4-0.9,0.9-0.9H120c0.5,0,0.9,0.4,0.9,0.9v1.4c0,0.5-0.4,0.9-0.9,0.9
		h-3.6c-0.5,0-0.9,0.4-0.9,0.9v11.8c0,0.5-0.4,0.9-0.9,0.9h-2.1c-0.5,0-0.9-0.4-0.9-0.9V10.3C111.7,9.8,111.3,9.4,110.8,9.4z"/>
	<path d="M135.9,20.8v1.3c0,0.5-0.4,0.9-0.9,0.9h-11.2c-0.5,0-0.9-0.4-0.9-0.9V7.2c0-0.5,0.4-0.9,0.9-0.9h10.9
		c0.5,0,0.9,0.4,0.9,0.9v1.3c0,0.5-0.4,0.9-0.9,0.9h-7c-0.5,0-0.9,0.4-0.9,0.9v1.8c0,0.5,0.4,0.9,0.9,0.9h6c0.5,0,0.9,0.4,0.9,0.9
		v1.2c0,0.5-0.4,0.9-0.9,0.9h-6c-0.5,0-0.9,0.4-0.9,0.9V19c0,0.5,0.4,0.9,0.9,0.9h7.3C135.5,19.9,135.9,20.3,135.9,20.8z"/>
	<path d="M140.7,22.7c-0.9-0.3-1.7-0.6-2.3-0.9c-0.4-0.2-0.6-0.7-0.4-1.2l0.6-1.3c0.2-0.5,0.8-0.7,1.2-0.4c0.5,0.3,1.1,0.5,1.7,0.7
		c1,0.3,2,0.5,3,0.5c1.1,0,1.9-0.2,2.4-0.5c0.5-0.3,0.8-0.8,0.8-1.3c0-0.4-0.2-0.7-0.5-1c-0.3-0.3-0.7-0.5-1.2-0.6
		c-0.5-0.2-1.1-0.3-2-0.5c-1.3-0.3-2.3-0.6-3.1-0.9c-0.8-0.3-1.5-0.8-2.1-1.5c-0.6-0.7-0.9-1.6-0.9-2.7c0-1,0.3-1.9,0.8-2.6
		c0.5-0.8,1.3-1.4,2.4-1.9s2.4-0.7,3.9-0.7c1.1,0,2.1,0.1,3.1,0.4c0.7,0.2,1.3,0.4,1.9,0.7c0.4,0.2,0.6,0.7,0.5,1.2l-0.5,1.3
		c-0.2,0.5-0.7,0.7-1.2,0.5c-1.3-0.6-2.5-0.9-3.8-0.9c-1.1,0-1.9,0.2-2.4,0.5c-0.5,0.4-0.8,0.8-0.8,1.4c0,0.6,0.3,1,0.9,1.3
		c0.6,0.3,1.5,0.6,2.7,0.8c1.3,0.3,2.3,0.6,3.1,0.9c0.8,0.3,1.5,0.8,2.1,1.4c0.6,0.7,0.9,1.5,0.9,2.7c0,1-0.3,1.8-0.8,2.6
		c-0.5,0.8-1.3,1.4-2.4,1.9c-1.1,0.5-2.4,0.7-3.9,0.7C143.2,23.3,141.9,23.1,140.7,22.7z"/>
	<path d="M156.6,9.4h-3.6c-0.5,0-0.9-0.4-0.9-0.9V7.2c0-0.5,0.4-0.9,0.9-0.9h12.8c0.5,0,0.9,0.4,0.9,0.9v1.4c0,0.5-0.4,0.9-0.9,0.9
		h-3.6c-0.5,0-0.9,0.4-0.9,0.9v11.8c0,0.5-0.4,0.9-0.9,0.9h-2.1c-0.5,0-0.9-0.4-0.9-0.9V10.3C157.5,9.8,157.1,9.4,156.6,9.4z"/>
</g>
<g class="st2">
	<path class="st6" d="M55.8,15.8h-5.2c-0.5,0-0.9,0.4-0.9,0.9v5.4c0,0.5-0.4,0.9-0.9,0.9H47c-0.5,0-0.9-0.4-0.9-0.9V6.2
		c0-0.5,0.4-0.9,0.9-0.9h9.7c0.5,0,0.9,0.4,0.9,0.9v1.1c0,0.5-0.4,0.9-0.9,0.9h-6c-0.5,0-0.9,0.4-0.9,0.9v2.7c0,0.5,0.4,0.9,0.9,0.9
		h5.2c0.5,0,0.9,0.4,0.9,0.9v1.1C56.7,15.4,56.3,15.8,55.8,15.8z"/>
	<path class="st6" d="M62.6,23h-1.8c-0.5,0-0.9-0.4-0.9-0.9V6.2c0-0.5,0.4-0.9,0.9-0.9h1.8c0.5,0,0.9,0.4,0.9,0.9v15.9
		C63.6,22.6,63.2,23,62.6,23z"/>
	<path class="st6" d="M79,8.3h-3.6c-0.5,0-0.9,0.4-0.9,0.9v12.9c0,0.5-0.4,0.9-0.9,0.9h-1.8c-0.5,0-0.9-0.4-0.9-0.9V9.2
		c0-0.5-0.4-0.9-0.9-0.9h-3.5c-0.5,0-0.9-0.4-0.9-0.9V6.2c0-0.5,0.4-0.9,0.9-0.9H79c0.5,0,0.9,0.4,0.9,0.9v1.1
		C79.9,7.9,79.5,8.3,79,8.3z"/>
	<path class="st6" d="M89.9,19.4h-5.1c-0.4,0-0.8,0.3-0.9,0.6l-0.8,2.4C83,22.8,82.7,23,82.3,23h-1.9c-0.6,0-1.1-0.6-0.9-1.3
		l5.9-15.9c0.1-0.4,0.5-0.6,0.9-0.6h2.1c0.4,0,0.7,0.2,0.9,0.6l5.9,15.9c0.2,0.6-0.2,1.3-0.9,1.3h-1.9c-0.4,0-0.8-0.3-0.9-0.6
		L90.8,20C90.7,19.6,90.3,19.4,89.9,19.4z M86.4,16.4h1.9c0.6,0,1.1-0.6,0.9-1.2l-1.8-5.4l-1.8,5.4C85.4,15.8,85.8,16.4,86.4,16.4z"
		/>
	<path class="st6" d="M115.2,8.3h-3.6c-0.5,0-0.9,0.4-0.9,0.9v12.9c0,0.5-0.4,0.9-0.9,0.9H108c-0.5,0-0.9-0.4-0.9-0.9V9.2
		c0-0.5-0.4-0.9-0.9-0.9h-3.5c-0.5,0-0.9-0.4-0.9-0.9V6.2c0-0.5,0.4-0.9,0.9-0.9h12.6c0.5,0,0.9,0.4,0.9,0.9v1.1
		C116.2,7.9,115.7,8.3,115.2,8.3z"/>
	<path class="st6" d="M128,15.4h-5.2c-0.5,0-0.9,0.4-0.9,0.9v2.9c0,0.5,0.4,0.9,0.9,0.9h6.4c0.5,0,0.9,0.4,0.9,0.9v1.1
		c0,0.5-0.4,0.9-0.9,0.9h-10c-0.5,0-0.9-0.4-0.9-0.9V6.2c0-0.5,0.4-0.9,0.9-0.9h10c0.5,0,0.9,0.4,0.9,0.9v1.1c0,0.5-0.4,0.9-0.9,0.9
		h-6.4c-0.5,0-0.9,0.4-0.9,0.9v2.4c0,0.5,0.4,0.9,0.9,0.9h5.2c0.5,0,0.9,0.4,0.9,0.9v1C128.9,14.9,128.5,15.4,128,15.4z"/>
	<path class="st6" d="M141.4,18.4c0-0.3,0-0.6-0.1-0.8c-0.1-0.2-0.3-0.5-0.5-0.7c-0.3-0.2-0.6-0.4-1.1-0.6c-0.5-0.2-1-0.4-1.7-0.6
		c-0.8-0.3-1.6-0.6-2.3-0.9c-0.7-0.3-1.3-0.7-1.9-1.2c-0.5-0.4-1-1-1.3-1.5c-0.3-0.6-0.5-1.2-0.5-2c0-0.7,0.2-1.4,0.5-2
		c0.3-0.6,0.8-1.1,1.4-1.6c0.6-0.4,1.3-0.8,2.1-1c0.8-0.2,1.7-0.4,2.6-0.4c1,0,1.9,0.1,2.7,0.4c0.8,0.3,1.5,0.7,2.1,1.1
		c0.6,0.5,1,1.1,1.3,1.7c0.2,0.4,0.3,0.7,0.4,1.1c0.1,0.6-0.4,1.1-0.9,1.1l-2.6,0c0-0.4-0.1-0.7-0.2-1s-0.3-0.6-0.5-0.8
		c-0.2-0.2-0.5-0.4-0.9-0.5C139.5,8.1,139,8,138.5,8c-0.5,0-0.9,0.1-1.2,0.2c-0.4,0.1-0.6,0.3-0.9,0.4c-0.2,0.2-0.4,0.4-0.5,0.7
		c-0.1,0.3-0.2,0.5-0.2,0.8c0,0.6,0.3,1.1,0.9,1.5c0.6,0.4,1.5,0.8,2.6,1.1c1,0.3,1.8,0.6,2.5,1c0.7,0.4,1.3,0.8,1.8,1.2
		c0.5,0.5,0.9,1,1.1,1.6c0.3,0.6,0.4,1.2,0.4,2c0,0.8-0.2,1.5-0.5,2.1c-0.3,0.6-0.7,1.1-1.3,1.5c-0.6,0.4-1.2,0.7-2,1
		c-0.8,0.2-1.7,0.3-2.6,0.3c-0.6,0-1.2-0.1-1.8-0.2c-0.6-0.1-1.1-0.3-1.7-0.5c-0.5-0.2-1-0.5-1.5-0.8c-0.5-0.3-0.8-0.7-1.2-1.1
		c-0.3-0.4-0.6-0.9-0.8-1.5c-0.1-0.2-0.1-0.5-0.2-0.7c-0.1-0.6,0.4-1.1,0.9-1.1l1.8,0c0.4,0,0.8,0.3,0.9,0.8c0,0.2,0.1,0.4,0.2,0.6
		c0.2,0.4,0.4,0.7,0.7,0.9c0.3,0.2,0.7,0.4,1.1,0.5c0.4,0.1,0.9,0.2,1.4,0.2c0.5,0,0.9-0.1,1.2-0.2c0.3-0.1,0.6-0.2,0.9-0.4
		c0.2-0.2,0.4-0.4,0.5-0.6C141.4,18.9,141.4,18.7,141.4,18.4z"/>
	<path class="st6" d="M160,8.3h-3.6c-0.5,0-0.9,0.4-0.9,0.9v12.9c0,0.5-0.4,0.9-0.9,0.9h-1.8c-0.5,0-0.9-0.4-0.9-0.9V9.2
		c0-0.5-0.4-0.9-0.9-0.9h-3.5c-0.5,0-0.9-0.4-0.9-0.9V6.2c0-0.5,0.4-0.9,0.9-0.9H160c0.5,0,0.9,0.4,0.9,0.9v1.1
		C160.9,7.9,160.5,8.3,160,8.3z"/>
</g>
<path class="st5" d="M46,23V5.1h3.1l6.7,9.1h-1.5l6.6-9.1H64V23h-3.3V8.8L62,9.2l-6.8,9h-0.4l-6.6-9l1.1-0.3V23H46z M73.6,23.3
	c-1.3,0-2.4-0.3-3.5-0.9c-1-0.6-1.9-1.4-2.5-2.4c-0.6-1-0.9-2.2-0.9-3.5S67,14,67.6,13c0.6-1,1.5-1.8,2.5-2.4s2.2-0.9,3.5-0.9
	c1.3,0,2.4,0.3,3.5,0.9s1.9,1.4,2.5,2.4c0.6,1,0.9,2.2,0.9,3.5c0,1.3-0.3,2.5-0.9,3.5s-1.5,1.8-2.5,2.4C76,23,74.8,23.3,73.6,23.3z
	 M73.6,20.4c0.7,0,1.3-0.2,1.8-0.5c0.5-0.3,1-0.8,1.3-1.4c0.3-0.6,0.5-1.3,0.5-2c0-0.8-0.2-1.4-0.5-2c-0.3-0.6-0.7-1.1-1.3-1.4
	c-0.5-0.4-1.1-0.5-1.8-0.5c-0.7,0-1.4,0.2-1.9,0.5c-0.5,0.3-1,0.8-1.3,1.4c-0.3,0.6-0.5,1.2-0.5,2c0,0.8,0.2,1.4,0.5,2
	c0.3,0.6,0.8,1.1,1.3,1.4C72.2,20.2,72.8,20.4,73.6,20.4z M88.9,23.3c-1.3,0-2.4-0.3-3.4-0.9c-1-0.6-1.8-1.4-2.4-2.5
	c-0.6-1-0.9-2.2-0.9-3.5c0-1.3,0.3-2.4,0.9-3.5c0.6-1,1.4-1.8,2.4-2.4c1-0.6,2.1-0.9,3.4-0.9c1,0,1.9,0.2,2.6,0.6
	c0.8,0.4,1.4,0.9,1.8,1.6l-0.5,0.6V4.8H96V23h-3v-2.5l0.3,0.6c-0.4,0.7-1.1,1.2-1.9,1.6C90.7,23.1,89.9,23.3,88.9,23.3z M89.2,20.4
	c0.7,0,1.4-0.2,1.9-0.5c0.5-0.3,1-0.8,1.3-1.4c0.3-0.6,0.5-1.3,0.5-2c0-0.8-0.2-1.4-0.5-2c-0.3-0.6-0.7-1.1-1.3-1.4
	c-0.5-0.3-1.2-0.5-1.9-0.5c-0.7,0-1.3,0.2-1.9,0.5c-0.6,0.3-1,0.8-1.3,1.4c-0.3,0.6-0.5,1.2-0.5,2c0,0.8,0.2,1.4,0.5,2
	c0.3,0.6,0.8,1.1,1.3,1.4C87.9,20.2,88.5,20.4,89.2,20.4z M105.2,23.3c-1.3,0-2.5-0.3-3.5-0.9c-1-0.6-1.8-1.4-2.4-2.5
	c-0.6-1-0.8-2.2-0.8-3.5c0-1.3,0.3-2.5,0.8-3.5c0.6-1,1.4-1.8,2.3-2.4c1-0.6,2.1-0.9,3.3-0.9c1,0,1.9,0.2,2.7,0.5
	c0.8,0.3,1.4,0.8,2,1.4s1,1.3,1.2,2c0.3,0.8,0.4,1.6,0.4,2.4c0,0.2,0,0.5,0,0.7c0,0.2-0.1,0.4-0.1,0.6H101V15h8.3l-1.5,1.1
	c0.1-0.7,0.1-1.4-0.1-2c-0.2-0.6-0.6-1-1.1-1.4c-0.5-0.3-1.1-0.5-1.8-0.5c-0.7,0-1.2,0.2-1.8,0.5c-0.5,0.3-0.9,0.8-1.2,1.4
	c-0.3,0.6-0.4,1.4-0.3,2.3c-0.1,0.8,0,1.5,0.3,2.1c0.3,0.6,0.7,1.1,1.2,1.4c0.6,0.3,1.2,0.5,1.9,0.5s1.3-0.2,1.8-0.5
	c0.5-0.3,0.9-0.7,1.2-1.2l2.5,1.2c-0.3,0.6-0.7,1.2-1.2,1.7c-0.5,0.5-1.2,0.9-1.9,1.1C106.9,23.2,106.1,23.3,105.2,23.3z M113.7,23
	V9.9h3v2.9l-0.2-0.4c0.3-1,0.8-1.7,1.4-2c0.7-0.4,1.4-0.6,2.4-0.6h0.8v2.8h-1.1c-0.9,0-1.6,0.3-2.2,0.8c-0.5,0.5-0.8,1.3-0.8,2.3V23
	H113.7z M122.6,23V9.9h3v2.6l-0.2-0.5c0.3-0.8,0.8-1.4,1.5-1.8c0.7-0.4,1.5-0.6,2.4-0.6c1,0,1.8,0.2,2.5,0.6c0.8,0.4,1.3,1,1.8,1.8
	c0.4,0.7,0.6,1.6,0.6,2.6V23h-3.1v-7.7c0-0.6-0.1-1.1-0.3-1.5s-0.5-0.7-0.9-1c-0.4-0.2-0.8-0.4-1.4-0.4c-0.5,0-1,0.1-1.4,0.4
	c-0.4,0.2-0.7,0.5-0.9,1c-0.2,0.4-0.3,0.9-0.3,1.5V23H122.6z M136.9,23V9.9h3.1V23H136.9z M136.9,8.5V5.1h3.1v3.4H136.9z M141.8,23
	v-2.5l7.6-8.8l0.5,1.1h-7.7V9.9h10.5v2.6l-7.4,8.8l-0.5-1.1h8V23H141.8z M160.7,23.3c-1.3,0-2.5-0.3-3.5-0.9c-1-0.6-1.8-1.4-2.4-2.5
	c-0.6-1-0.8-2.2-0.8-3.5c0-1.3,0.3-2.5,0.8-3.5c0.6-1,1.4-1.8,2.3-2.4c1-0.6,2.1-0.9,3.3-0.9c1,0,1.9,0.2,2.7,0.5
	c0.8,0.3,1.4,0.8,2,1.4c0.5,0.6,1,1.3,1.2,2c0.3,0.8,0.4,1.6,0.4,2.4c0,0.2,0,0.5,0,0.7c0,0.2-0.1,0.4-0.1,0.6h-10.1V15h8.3
	l-1.5,1.1c0.1-0.7,0.1-1.4-0.1-2c-0.2-0.6-0.6-1-1.1-1.4c-0.5-0.3-1.1-0.5-1.8-0.5c-0.7,0-1.2,0.2-1.8,0.5c-0.5,0.3-0.9,0.8-1.2,1.4
	c-0.3,0.6-0.4,1.4-0.3,2.3c-0.1,0.8,0,1.5,0.3,2.1c0.3,0.6,0.7,1.1,1.2,1.4c0.6,0.3,1.2,0.5,1.9,0.5c0.7,0,1.3-0.2,1.8-0.5
	c0.5-0.3,0.9-0.7,1.2-1.2l2.5,1.2c-0.3,0.6-0.7,1.2-1.2,1.7c-0.5,0.5-1.2,0.9-1.9,1.1C162.4,23.2,161.6,23.3,160.7,23.3z"/>
</svg>
